<svg fill="#0296CC" xmlns="http://www.w3.org/2000/svg" xmlns:xlink="http://www.w3.org/1999/xlink" version="1.1" x="0px" y="0px" viewBox="0 0 100 100" style="enable-background:new 0 0 100 100;" xml:space="preserve"><g><path d="M67.186,91.867v-10.58h4.386c5.507,0,5.114-3.682,5.136-3.925l0.001,0.106l-0.001-0.109   c0.001-0.005,0.001-0.009,0.001-0.013V59.744C76.703,59.176,76.775,54.1,79.855,50c-3.079-4.1-3.151-9.176-3.146-9.744V22.653   c0-0.003-0.001-0.007-0.001-0.012l0.001-0.11l-0.002,0.106c-0.021-0.244,0.373-3.925-5.135-3.925h-4.387V8.133h4.387   c2.935,0,5.32,0.377,7.263,1.016C70.687,3.387,60.739,0,50,0C39.261,0,29.313,3.387,21.165,9.149   c1.943-0.639,4.329-1.017,7.264-1.017h4.386v10.58h-4.386c-5.507,0-5.114,3.681-5.136,3.925l-0.001-0.106l0,0.11   c0,0.004,0,0.008,0,0.012v17.603c0.004,0.568-0.067,5.645-3.147,9.744c3.079,4.1,3.151,9.176,3.146,9.744v17.603   c0,0.004,0.001,0.008,0.001,0.013l-0.001,0.109l0.001-0.106c0.022,0.243-0.372,3.925,5.135,3.925h4.386v10.58h-4.386   c-2.934,0-5.319-0.377-7.262-1.016C29.314,96.613,39.262,100,50,100s20.686-3.387,28.835-9.149   c-1.943,0.639-4.33,1.017-7.265,1.017H67.186z M60.26,65.645c0,5.304-0.611,15.182-20.52,15.182c0-0.007,0-0.987,0-4.357   c9.572,0,10.77-6.071,10.242-10.824H39.74V45.124h20.52V65.645z M60.26,39.365H39.74V18.845h20.52V39.365z M61.827,70.818   c0,0.01,0,0.013,0,0.012C61.827,70.831,61.827,70.828,61.827,70.818c0-0.005,0-0.01,0-0.011   C61.827,70.809,61.827,70.813,61.827,70.818z M87.289,22.471c0-1.826-0.114-4.565-1.285-7.162C94.669,24.299,100,36.526,100,50   c0,13.474-5.332,25.702-13.997,34.693c1.171-2.597,1.285-5.337,1.285-7.163V59.714l-0.001-0.112c0-0.021,0.173-4.311,4.58-4.311   V44.709c-4.407,0-4.58-4.29-4.58-4.31l0.002-0.113V22.471z M12.711,77.529c0,1.826,0.114,4.564,1.285,7.161   C5.331,75.699,0,63.473,0,50c0-13.474,5.332-25.701,13.998-34.692c-1.171,2.597-1.286,5.337-1.286,7.164v17.815l0.001,0.113   c0,0.02-0.173,4.31-4.58,4.31v10.582c4.407,0,4.58,4.29,4.58,4.311l-0.001,0.112L12.711,77.529z"></path></g></svg>